<?xml version="1.0" encoding="UTF-8" standalone="no"?>
<svg
   width="407.00299"
   height="57.022999"
   viewBox="0 0 407.00299 57.022999"
   fill="none"
   version="1.1"
   id="svg22"
   sodipodi:docname="Biconomy.com logo white.svg"
   inkscape:version="1.4 (1:1.4+202410161351+e7c3feb100)"
   xmlns:inkscape="http://www.inkscape.org/namespaces/inkscape"
   xmlns:sodipodi="http://sodipodi.sourceforge.net/DTD/sodipodi-0.dtd"
   xmlns="http://www.w3.org/2000/svg"
   xmlns:svg="http://www.w3.org/2000/svg">
  <sodipodi:namedview
     id="namedview22"
     pagecolor="#ffffff"
     bordercolor="#000000"
     borderopacity="0.25"
     inkscape:showpageshadow="2"
     inkscape:pageopacity="0.0"
     inkscape:pagecheckerboard="0"
     inkscape:deskcolor="#d1d1d1"
     inkscape:zoom="2.3713163"
     inkscape:cx="243.53563"
     inkscape:cy="-22.139602"
     inkscape:window-width="2558"
     inkscape:window-height="1135"
     inkscape:window-x="0"
     inkscape:window-y="41"
     inkscape:window-maximized="1"
     inkscape:current-layer="svg22">
    <inkscape:page
       x="0"
       y="0"
       width="407.00299"
       height="57.022999"
       id="page2"
       margin="0"
       bleed="0" />
  </sodipodi:namedview>
  <path
     fill-rule="evenodd"
     clip-rule="evenodd"
     d="m 122.021,33.544 v -6.7088 c 0,-3.2366 -3.07,-5.8698 -6.845,-5.8698 -3.774,0 -6.845,2.6332 -6.845,5.8698 v 6.7088 c 0,3.2365 3.071,5.8697 6.845,5.8697 3.775,0 6.845,-2.6332 6.845,-5.8697 z m -6.845,-20.1264 c 8.642,0 15.647,6.0073 15.647,13.4176 v 6.7088 c 0,7.4102 -7.005,13.4164 -15.647,13.4164 -8.642,0 -15.647,-6.0062 -15.647,-13.4164 v -6.7088 c 0,-7.4103 7.005,-13.4176 15.647,-13.4176 z m 77.257,20.1264 v -6.7088 c 0,-3.2366 -3.071,-5.8698 -6.846,-5.8698 -3.775,0 -6.846,2.6332 -6.846,5.8698 v 6.7088 c 0,3.2365 3.071,5.8697 6.846,5.8697 3.775,0 6.846,-2.6332 6.846,-5.8697 z m -6.846,-20.1264 c 8.642,0 15.647,6.0073 15.647,13.4176 v 6.7088 c 0,7.4102 -7.005,13.4164 -15.647,13.4164 -8.642,0 -15.647,-6.0062 -15.647,-13.4164 v -6.7088 c 0,-7.4103 7.006,-13.4176 15.647,-13.4176 z M 79.971,20.9654 c -3.775,0 -6.846,2.6332 -6.846,5.8698 v 6.7088 c 0,3.2365 3.071,5.8697 6.846,5.8697 3.774,0 6.845,-2.6332 6.845,-5.8697 h 8.801 c 0,7.4102 -7.005,13.4164 -15.646,13.4164 -8.642,0 -15.647,-6.0062 -15.647,-13.4164 v -6.7088 c 0,-7.4103 7.005,-13.4176 15.647,-13.4176 8.641,0 15.646,6.0073 15.646,13.4176 h -8.801 c 0,-3.2366 -3.071,-5.8698 -6.845,-5.8698 z M 51.611,46.1225 V 14.2566 h 8.801 v 31.8659 z m 0,-35.2209 V 3.355 h 8.801 v 7.5466 z m 98.77,2.516 c 8.642,0 15.647,6.0073 15.647,13.4176 v 19.2873 h -8.802 V 26.8352 c 0,-3.2366 -3.07,-5.8698 -6.845,-5.8698 -3.774,0 -6.845,2.6332 -6.845,5.8698 v 19.2873 h -8.801 V 26.8352 c 0,-7.4103 7.004,-13.4176 15.646,-13.4176 z m 84.102,0 c 7.021,0 12.713,4.8808 12.713,10.9016 v 21.8033 h -8.8 V 24.3192 c 0,-1.8494 -1.756,-3.3538 -3.913,-3.3538 -2.156,0 -3.911,1.5044 -3.911,3.3538 v 21.8033 h -8.801 V 24.3192 c 0,-1.8494 -1.754,-3.3538 -3.912,-3.3538 -2.157,0 -3.912,1.5044 -3.912,3.3538 v 21.8033 h -8.801 V 24.3192 c 0,-6.0208 5.692,-10.9016 12.713,-10.9016 3.179,0 6.084,1.0025 8.313,2.6569 2.228,-1.6544 5.132,-2.6569 8.311,-2.6569 z m 40.727,0.839 h 9.367 L 266.424,57.023 h -9.365 L 261.686,46.1225 248.16,14.2566 h 9.366 l 8.842,20.8323 z M 7.115,7.5478 3.912,0 h 18.606 v 7.5478 h -6.601 v 12.1591 h 6.601 v 7.5478 h -6.601 v 12.159 h 6.601 v 7.5467 H 0 l 3.204,-7.5467 h 3.911 z m 33.381,14.3784 c 4.336,2.4336 7.203,6.6321 7.203,11.408 0,7.5253 -7.115,13.6273 -15.892,13.6273 h -5.378 v -7.5478 h 5.378 c 3.91,0 7.091,-2.7279 7.091,-6.0795 0,-3.3527 -3.181,-6.0795 -7.091,-6.0795 h -5.378 v -7.5478 h 1.467 c 3.909,0 7.09,-2.728 7.09,-6.0796 0,-3.3515 -3.181,-6.0795 -7.09,-6.0795 H 26.429 V 0 h 1.467 c 8.776,0 15.891,6.1009 15.891,13.6273 0,3.1238 -1.228,6.0006 -3.291,8.2989 z"
     fill="white"
     id="path1"
     style="fill:#000000;fill-opacity:1" />
  <path
     d="m 288.76,43.28 c 0,2.3096 -1.873,4.1816 -4.183,4.1816 -2.309,0 -4.181,-1.872 -4.181,-4.1816 0,-2.3095 1.872,-4.1826 4.181,-4.1826 2.31,0 4.183,1.8731 4.183,4.1826 z"
     fill="white"
     id="path2"
     style="fill:#000000;fill-opacity:1" />
  <path
     d="m 302.632,26.8334 c 0,-3.2365 3.071,-5.8698 6.846,-5.8698 3.775,0 6.845,2.6333 6.845,5.8698 h 8.801 c 0,-7.4102 -7.005,-13.4176 -15.646,-13.4176 -8.642,0 -15.647,6.0074 -15.647,13.4176 v 6.7088 c 0,7.4102 7.005,13.4176 15.647,13.4176 8.641,0 15.646,-6.0074 15.646,-13.4176 h -8.801 c 0,3.2365 -3.07,5.8698 -6.845,5.8698 -3.775,0 -6.846,-2.6333 -6.846,-5.8698 z"
     fill="white"
     id="path3"
     style="fill:#000000;fill-opacity:1" />
  <path
     d="m 407.003,24.4574 c 0,-6.0209 -5.692,-10.9016 -12.713,-10.9016 -3.18,0 -6.084,1.0025 -8.312,2.6569 -2.229,-1.6544 -5.132,-2.6569 -8.311,-2.6569 -7.022,0 -12.714,4.8807 -12.714,10.9016 v 21.8022 h 8.8 V 24.4574 c 0,-1.8494 1.756,-3.3549 3.914,-3.3549 2.156,0 3.91,1.5055 3.91,3.3549 v 21.8022 h 8.801 V 24.4574 c 0,-1.8494 1.755,-3.3549 3.912,-3.3549 2.156,0 3.912,1.5055 3.912,3.3549 v 21.8022 h 8.801 z"
     fill="white"
     id="path4"
     style="fill:#000000;fill-opacity:1" />
  <path
     fill-rule="evenodd"
     clip-rule="evenodd"
     d="m 345.755,13.998 c 8.642,0 15.646,6.0074 15.646,13.4176 v 6.7088 c 0,7.4102 -7.004,13.4175 -15.646,13.4175 -8.642,0 -15.647,-6.0073 -15.647,-13.4175 v -6.7088 c 0,-7.4102 7.005,-13.4176 15.647,-13.4176 z m 6.845,20.1264 v -6.7088 c 0,-3.2366 -3.071,-5.8698 -6.844,-5.8698 -3.776,0 -6.846,2.6332 -6.846,5.8698 v 6.7088 c 0,3.2365 3.07,5.8697 6.846,5.8697 3.773,0 6.844,-2.6332 6.844,-5.8697 z"
     fill="white"
     id="path5"
     style="fill:#000000;fill-opacity:1" />
  <mask
     id="mask0_2433_2293"
     maskUnits="userSpaceOnUse"
     x="0"
     y="0"
     width="87"
     height="86">
    <path
       d="M 0.359375,15.5602 C 0.359375,7.40784 6.95285,0.799072 15.0863,0.799072 h 56.4533 c 8.1335,0 14.7267,6.608768 14.7267,14.761128 v 55.354 c 0,8.1524 -6.5932,14.7615 -14.7267,14.7615 H 15.0863 c -8.13345,0 -14.726925,-6.6091 -14.726925,-14.7615 z"
       fill="url(#paint0_linear_2433_2293)"
       id="path6" />
  </mask>
  <defs
     id="defs22">
    <linearGradient
       id="paint0_linear_2433_2293"
       x1="43.312901"
       y1="0.79907203"
       x2="43.312901"
       y2="85.675697"
       gradientUnits="userSpaceOnUse">
      <stop
         stop-color="#0091EB"
         id="stop15" />
      <stop
         offset="1"
         stop-color="#1A357C"
         id="stop16" />
    </linearGradient>
  </defs>
</svg>
