<?xml version="1.0" encoding="UTF-8" standalone="no"?>
<svg
   width="303.34558"
   height="58.456188"
   viewBox="0 0 303.34559 58.456188"
   fill="none"
   version="1.1"
   id="svg11"
   sodipodi:docname="partner4.svg"
   inkscape:version="1.4 (1:1.4+202410161351+e7c3feb100)"
   xmlns:inkscape="http://www.inkscape.org/namespaces/inkscape"
   xmlns:sodipodi="http://sodipodi.sourceforge.net/DTD/sodipodi-0.dtd"
   xmlns="http://www.w3.org/2000/svg"
   xmlns:svg="http://www.w3.org/2000/svg">
  <sodipodi:namedview
     id="namedview11"
     pagecolor="#ffffff"
     bordercolor="#000000"
     borderopacity="0.25"
     inkscape:showpageshadow="2"
     inkscape:pageopacity="0.0"
     inkscape:pagecheckerboard="0"
     inkscape:deskcolor="#d1d1d1"
     inkscape:zoom="3.3809524"
     inkscape:cx="129.40141"
     inkscape:cy="39.485915"
     inkscape:window-width="2558"
     inkscape:window-height="1135"
     inkscape:window-x="0"
     inkscape:window-y="41"
     inkscape:window-maximized="1"
     inkscape:current-layer="svg11" />
  <g
     id="g1"
     transform="translate(-17.450705,-7.690141)">
    <path
       d="M 45.167332,7.6904322 C 29.790906,7.7637583 17.383073,20.907575 17.450982,37.049647 17.520829,53.191657 30.043102,66.217343 45.417541,66.146038 60.793966,66.072725 73.201825,52.928908 73.133884,36.788907 73.064071,20.644827 60.543699,7.6191424 45.167332,7.6904322 Z M 41.641858,35.485334 c -2.749318,0 -4.978649,-2.338309 -4.978649,-5.224523 0,-2.886214 2.229331,-5.224523 4.978649,-5.224523 2.749318,0 4.976779,2.340319 4.976779,5.224523 0,2.884144 -2.229388,5.224523 -4.976779,5.224523 z m 3.969751,5.648148 0.02524,-0.03258 0.02711,-0.03258 c 1.420285,0.961422 3.042348,1.301564 4.662427,1.350459 1.622063,0.04476 3.275148,-0.08354 4.901067,-0.427764 1.623934,-0.354391 3.22076,-0.877879 4.763258,-1.545984 0.865362,-0.37479 1.726809,-0.784166 2.547539,-1.264846 0.0058,-0.0041 0.0097,-0.0061 0.01554,-0.01023 0.510291,-0.321813 1.008897,-0.661956 1.497865,-1.012266 0.106674,-0.07947 0.209549,-0.163009 0.310439,-0.248501 l 0.01162,0.01425 0.0427,0.05291 c -1.251454,1.195673 -2.741548,2.08372 -4.258808,2.867885 -1.532799,0.757739 -3.131555,1.378958 -4.782711,1.827061 -1.645315,0.446094 -3.362427,0.784227 -5.10092,0.617201 -1.71127,-0.158867 -3.513732,-0.788246 -4.666224,-2.152955 z m 12.774557,-5.648148 c -0.0019,-0.627369 0.479211,-1.132528 1.072924,-1.138617 0.597627,-0.002 1.078825,0.50108 1.084609,1.126378 0.0019,0.625299 -0.479212,1.136547 -1.072924,1.138617 -0.5957,0.002 -1.078826,-0.503089 -1.084609,-1.126378 z m -8.527374,28.033158 c -1.074911,-7.909062 5.504479,-15.65524 9.214206,-19.618936 0.842053,-0.898277 2.143981,-2.136634 3.354658,-3.452447 4.815717,-4.727524 5.77414,-10.375732 -4.082267,-13.198802 -1.868417,-0.568304 -3.804776,-1.372868 -5.766371,-2.185591 -0.0621,-0.189375 -0.131968,-0.36864 -0.213464,-0.537676 -0.22503,-0.407366 -0.618891,-0.875869 -1.21459,-1.407516 -1.280546,-1.167115 -3.688347,-1.136547 -5.766372,-0.619148 -2.297213,-0.568304 -4.563463,-0.769978 -6.742319,-0.222073 -9.532415,2.757915 -11.065157,7.638216 -11.435767,13.518606 -0.504449,6.35498 -0.799348,11.090663 -3.090778,16.500541 C 21.25581,47.965124 19.56973,42.712043 19.546452,37.043497 19.482426,22.117436 30.956952,9.9635575 45.175043,9.8963451 59.393077,9.829123 70.97051,21.875087 71.034536,36.801147 c 0.05827,13.33118 -9.091934,24.454421 -21.177672,26.721426 z"
       fill="#0d1217"
       id="path1"
       style="stroke-width:0.596426" />
    <path
       d="m 45.142036,30.307698 c 0,2.030744 -1.567734,3.674459 -3.500178,3.674459 -1.932503,0 -3.502164,-1.643715 -3.502164,-3.674459 0,-2.030744 1.567734,-3.674459 3.502164,-3.674459 1.934372,0 3.500178,1.643715 3.500178,3.674459 z"
       fill="#0d1217"
       id="path2"
       style="stroke-width:0.596426" />
    <path
       d="m 109.2563,30.065314 c -0.978,-3.8504 -3.449,-6.665 -8.297,-6.665 -7.131997,0 -10.115997,6.3388 -10.115997,12.7683 0,6.4295 2.984,12.7683 10.115997,12.7683 5.175,0 8.017,-3.8974 8.484,-8.7801 h 5.686 c -0.467,8.0268 -6.107,13.5686 -14.17,13.5686 -9.975997,0 -15.942997,-7.9798 -15.942997,-17.5602 0,-9.5804 5.967,-17.5567 15.942997,-17.5567 7.506,0.047 13.425,4.2269 14.123,11.4568 z"
       fill="#0d1217"
       id="path3" />
    <path
       d="m 118.5813,40.772214 c 0,-7.4181 4.427,-12.7682 12.167,-12.7682 7.739,0 12.166,5.3534 12.166,12.7682 0,7.4148 -4.427,12.8154 -12.166,12.8154 -7.74,0 -12.167,-5.3535 -12.167,-12.8154 z m 19.018,0 c 0,-4.1798 -2.097,-8.5447 -6.851,-8.5447 -4.755,0 -6.852,4.3649 -6.852,8.5447 0,4.1799 2.097,8.5918 6.852,8.5918 4.754,0 6.851,-4.3648 6.851,-8.5918 z"
       fill="#0d1217"
       id="path4" />
    <path
       d="m 147.4823,19.409214 h 5.315 v 5.071 h -5.315 z m 0,9.2475 h 5.315 v 24.2722 h -5.315 z"
       fill="#0d1217"
       id="path5" />
    <path
       d="m 158.5773,28.659714 h 5.035 v 3.5678 l 0.093,0.0942 c 1.586,-2.6767 4.334,-4.3177 7.506,-4.3177 5.222,0 8.53,2.8179 8.53,8.2622 v 16.6656 h -5.315 v -15.2566 c -0.093,-3.8033 -1.586,-5.4443 -4.708,-5.4443 -3.542,0 -5.826,2.818 -5.826,6.3858 v 14.3185 h -5.315 v -24.2721 z"
       fill="#0d1217"
       id="path6" />
    <path
       d="m 215.1193,52.931314 h -3.729 l -0.885,-3.9444 c -3.122,3.5678 -5.966,4.7414 -10.023,4.7414 -9.976,0 -15.943,-7.9797 -15.943,-17.5601 0,-9.5804 5.967,-17.5568 15.943,-17.5568 7.272,0 13.379,3.8974 14.263,11.4568 h -5.686 c -0.56,-4.4119 -4.38,-6.6649 -8.577,-6.6649 -7.132,0 -10.117,6.3387 -10.117,12.7682 0,6.4295 2.985,12.7683 10.117,12.7683 5.967,0.0941 9.229,-3.5208 9.322,-9.2004 h -8.858 v -4.459 h 14.17 v 17.6509 z"
       fill="#0d1217"
       id="path7" />
    <path
       d="m 224.8623,42.177314 c 0,3.8032 2.05,7.1828 6.481,7.1828 3.075,0 4.941,-1.3619 5.873,-4.0387 h 5.035 c -1.166,5.3064 -5.64,8.2622 -10.908,8.2622 -7.553,0 -11.793,-5.3063 -11.793,-12.7682 0,-6.9003 4.474,-12.8153 11.652,-12.8153 7.6,0 12.261,6.9003 11.376,14.1772 h -17.713 z m 12.4,-3.5208 c -0.187,-3.3795 -2.47,-6.4329 -6.06,-6.4329 -3.589,0 -6.2,2.818 -6.34,6.4329 z"
       fill="#0d1217"
       id="path8" />
    <path
       d="m 262.9013,36.780714 c -0.42,-2.9592 -2.564,-4.5532 -5.499,-4.5532 -2.751,0 -6.621,1.4561 -6.621,8.8272 0,4.0386 1.773,8.3093 6.388,8.3093 3.075,0 5.221,-2.0647 5.732,-5.5384 h 5.316 c -0.979,6.2916 -4.848,9.7653 -11.048,9.7653 -7.553,0 -11.7,-5.4005 -11.7,-12.5362 0,-7.1357 3.964,-13.0507 11.887,-13.0507 5.592,0 10.347,2.8179 10.861,8.78 h -5.316 z"
       fill="#0d1217"
       id="path9" />
    <path
       d="m 272.6913,19.409214 h 5.315 v 19.0599 l 9.602,-9.8124 h 6.525 l -9.229,8.9213 10.117,15.3509 h -6.481 l -7.365,-11.783 -3.169,3.097 v 8.686 h -5.315 z"
       fill="#0d1217"
       id="path10" />
    <path
       d="m 296.4633,40.772214 c 0,-7.4181 4.427,-12.7682 12.167,-12.7682 7.739,0 12.166,5.3534 12.166,12.7682 0,7.4148 -4.427,12.8154 -12.166,12.8154 -7.74,0 -12.167,-5.3535 -12.167,-12.8154 z m 19.018,0 c 0,-4.1798 -2.097,-8.5447 -6.851,-8.5447 -4.755,0 -6.852,4.3649 -6.852,8.5447 0,4.1799 2.097,8.5918 6.852,8.5918 4.754,0 6.851,-4.3648 6.851,-8.5918 z"
       fill="#0d1217"
       id="path11" />
  </g>
  <defs
     id="defs11" />
</svg>
