<?xml version="1.0" encoding="UTF-8" standalone="no"?>
<svg
   clip-rule="evenodd"
   fill-rule="evenodd"
   stroke-linejoin="round"
   stroke-miterlimit="2"
   viewBox="0 0 360.00015 111.96047"
   version="1.1"
   id="svg10"
   sodipodi:docname="flux@logotyp.us.svg"
   width="360.00015"
   height="111.96047"
   inkscape:version="1.4 (1:1.4+202410161351+e7c3feb100)"
   xmlns:inkscape="http://www.inkscape.org/namespaces/inkscape"
   xmlns:sodipodi="http://sodipodi.sourceforge.net/DTD/sodipodi-0.dtd"
   xmlns="http://www.w3.org/2000/svg"
   xmlns:svg="http://www.w3.org/2000/svg">
  <defs
     id="defs10" />
  <sodipodi:namedview
     id="namedview10"
     pagecolor="#ffffff"
     bordercolor="#000000"
     borderopacity="0.25"
     inkscape:showpageshadow="2"
     inkscape:pageopacity="0.0"
     inkscape:pagecheckerboard="0"
     inkscape:deskcolor="#d1d1d1"
     inkscape:zoom="2.3325"
     inkscape:cx="180.27867"
     inkscape:cy="55.948553"
     inkscape:window-width="2558"
     inkscape:window-height="1135"
     inkscape:window-x="0"
     inkscape:window-y="41"
     inkscape:window-maximized="1"
     inkscape:current-layer="svg10" />
  <g
     id="g10"
     transform="translate(-100.00007,-144.0198)">
    <path
       d="m 156.34381,144.0198 c 30.89818,0.36351 55.61672,25.44556 55.61672,56.34374 0,30.89818 -25.44556,55.61673 -56.34374,55.61673 -30.53467,-0.36351 -55.61672,-25.08205 -55.61672,-55.98023 0,-31.26169 25.08205,-55.98024 56.34374,-55.98024 z"
       fill="#2b61d1"
       id="path1"
       style="fill:#000000;fill-opacity:1;fill-rule:nonzero;stroke-width:3.63508" />
    <g
       fill="#ffffff"
       transform="matrix(3.63508,0,0,3.63508,81.501146,68.828174)"
       id="g5"
       style="fill-rule:nonzero">
      <path
         d="m 22.4,44.9 -1.8,1 -3.8,-2.2 1.7,-1 h 0.1 z"
         id="path2" />
      <path
         d="m 29.1,31.2 v 2 l -3.7,-2.2 -1,-0.6 -1,0.6 -4.7,2.7 -1,0.6 v 1.2 l -1.8,-1.1 -1,-0.6 -1,0.6 -1.7,1 V 31 l 8.5,-4.9 z"
         id="path3" />
      <path
         d="m 29.1,35.6 v 5.5 l -4.7,2.7 -4.7,-2.7 v -5.5 l 4.7,-2.7 z"
         id="path4" />
      <path
         d="M 17.5,37.9 V 41 L 14.8,42.6 12.1,41 v -3.1 l 2.7,-1.6 z"
         id="path5" />
    </g>
    <g
       fill="#36395a"
       transform="matrix(3.63508,0,0,3.63508,194.27587,68.828174)"
       id="g9"
       style="fill:#000000;fill-opacity:1;fill-rule:nonzero">
      <path
         d="m 16.9,30 v 5.3 h 9.6 V 39 h -9.6 v 7.3 h -4.8 v -20 H 27.8 V 30 Z"
         id="path6"
         style="fill:#000000;fill-opacity:1" />
      <path
         d="m 29.9,26.3 h 4.6 v 19.9 h -4.6 z"
         id="path7"
         style="fill:#000000;fill-opacity:1" />
      <path
         d="m 54.3,30.2 v 16 h -4.4 v -1.9 c -1.3,1.4 -3.1,2.2 -5,2.1 -4,0 -6.8,-2.3 -6.8,-7.2 v -9 h 4.6 v 8.4 c 0,2.7 1.2,3.9 3.2,3.9 2.1,0 3.7,-1.4 3.7,-4.3 v -7.9 h 4.7 z"
         id="path8"
         style="fill:#000000;fill-opacity:1" />
      <path
         d="m 67.7,46.2 -3.5,-4.9 -3.6,4.9 h -5.1 l 6.2,-8.1 -5.9,-7.9 H 61 l 3.4,4.7 3.5,-4.7 h 4.9 l -5.9,7.8 6.2,8.2 z"
         id="path9"
         style="fill:#000000;fill-opacity:1" />
    </g>
  </g>
</svg>
