<?xml version="1.0" encoding="UTF-8" standalone="no"?>
<svg
   viewBox="0 0 274.75049 64.667518"
   version="1.1"
   id="svg4"
   sodipodi:docname="partner1.svg"
   width="274.75049"
   height="64.667519"
   inkscape:version="1.4 (1:1.4+202410161351+e7c3feb100)"
   xmlns:inkscape="http://www.inkscape.org/namespaces/inkscape"
   xmlns:sodipodi="http://sodipodi.sourceforge.net/DTD/sodipodi-0.dtd"
   xmlns:xlink="http://www.w3.org/1999/xlink"
   xmlns="http://www.w3.org/2000/svg"
   xmlns:svg="http://www.w3.org/2000/svg">
  <defs
     id="defs4">
    <linearGradient
       id="linearGradient5"
       gradientTransform="matrix(31.93,0,0,-32.93,20238.67,19407.46)"
       gradientUnits="userSpaceOnUse"
       x1="-631.46997"
       x2="-633.88"
       y1="588.08002"
       y2="588.08002">
      <stop
         offset="0"
         stop-color="#22e6b8"
         id="stop4"
         style="stop-color:#000000;stop-opacity:1;" />
      <stop
         offset="1"
         stop-color="#00c1ce"
         id="stop5"
         style="stop-color:#000000;stop-opacity:1;" />
    </linearGradient>
    <linearGradient
       inkscape:collect="always"
       xlink:href="#a"
       id="linearGradient4"
       gradientUnits="userSpaceOnUse"
       gradientTransform="matrix(25.959693,0,0,-26.772712,16454.418,15778.705)"
       x1="-631.46997"
       y1="588.08002"
       x2="-633.88"
       y2="588.08002" />
  </defs>
  <sodipodi:namedview
     id="namedview4"
     pagecolor="#ffffff"
     bordercolor="#000000"
     borderopacity="0.25"
     inkscape:showpageshadow="2"
     inkscape:pageopacity="0.0"
     inkscape:pagecheckerboard="0"
     inkscape:deskcolor="#d1d1d1"
     inkscape:zoom="5.90397"
     inkscape:cx="138.46615"
     inkscape:cy="34.807088"
     inkscape:window-width="2558"
     inkscape:window-height="1135"
     inkscape:window-x="0"
     inkscape:window-y="41"
     inkscape:window-maximized="1"
     inkscape:current-layer="svg4" />
  <linearGradient
     id="a"
     gradientTransform="matrix(31.93,0,0,-32.93,20238.67,19407.46)"
     gradientUnits="userSpaceOnUse"
     x1="-631.46997"
     x2="-633.88"
     y1="588.08002"
     y2="588.08002">
    <stop
       offset="0"
       stop-color="#22e6b8"
       id="stop1"
       style="stop-color:#000000;stop-opacity:1;" />
    <stop
       offset="1"
       stop-color="#00c1ce"
       id="stop2"
       style="stop-color:#000000;stop-opacity:1;" />
  </linearGradient>
  <linearGradient
     id="b"
     gradientTransform="matrix(4.42,0,0,-4.37,2291.0105,2116.9524)"
     x1="-481.98999"
     x2="-484.39999"
     xlink:href="#linearGradient5"
     y1="481.56"
     y2="481.56" />
  <path
     d="m 41.957931,23.935269 a 12.894479,12.894479 0 0 0 -18.032759,0 12.658704,12.658704 0 0 0 0.04878,17.959587 12.878219,12.878219 0 0 0 18.08967,0.05691 c 0.08943,-0.08943 0.43903,-0.471551 1.056925,-1.154487 l -6.016339,-5.975688 c -0.617895,0.715457 -0.943102,1.089446 -0.983753,1.121966 a 4.3577812,4.3577812 0 0 1 -6.146423,0 4.2846095,4.2846095 0 0 1 -0.05691,-6.05699 4.3577812,4.3577812 0 0 1 6.097642,0.04878 l 16.081513,15.95956 A 24.179181,24.179181 0 0 1 32.356178,56.220248 23.862104,23.862104 0 1 1 51.510902,18.138444 q -1.056924,1.235789 -5.439096,6.154553 l 5.959428,5.861866 9.821268,-11.016406 A 32.333761,32.333761 0 1 0 32.356178,64.667514 c 8.130188,0 14.853854,-2.528488 21.431177,-8.130188 A 34.577693,34.577693 0 0 0 62.60048,44.472125 Z"
     fill="url(#a)"
     id="path2"
     style="fill:url(#linearGradient4);stroke-width:0.813019" />
  <path
     d="m 200.60048,39.072399 v 19 h -7.85 v -19.41 a 9.74,9.74 0 0 0 -19.16,0.2 v 19.25 h -7.85 v -34.55 l 6,3.78 a 17.64,17.64 0 0 1 11.43,-4.17 17.34,17.34 0 0 1 17.43,15.9 z m -82.35,-19.89 a 24.19,24.19 0 0 0 -6.88,5.29 15.9,15.9 0 1 0 -13,25 16,16 0 0 0 7.88,-2 23.78,23.78 0 0 0 4,7.65 24.84,24.84 0 0 1 -11.9,3 24.41,24.41 0 1 1 0,-48.8099998 24.73,24.73 0 0 1 19.83,9.8799998 z m 11.67,38.93 a 17.23,17.23 0 1 1 17.43,-17.23 17.33,17.33 0 0 1 -17.43,17.23 z m 0,-7.66 a 9.57,9.57 0 1 0 -9.69,-9.57 9.62,9.62 0 0 0 9.69,9.57 z m 22.28,-26.79 h 7.75 v 34.45 h -7.75 z m 84.26,-6.1 h -22.16 v 12.52 h 21.52 v 7.77 h -21.52 v 12.48 h 22.16 v 7.78 h -30.51 V 9.7823992 h 30.51 z m 16.3,23.25 -11.93,-17.15 h 9.86 c 0.29,0.48 0.72,1.14 1.28,2 l 4.07,6.13 c 0.65,1 1.11,1.7 1.38,2.17 l 0.4,0.68 7.09,-10.95 h 9.39 l -11.7,16.83 12.15,17.59 h -9.74 l -7.51,-11.26 -0.41,0.59 c -0.33,0.48 -0.82,1.23 -1.48,2.24 -0.66,1.01 -1.35,2.08 -2.1,3.2 l -2.11,3.22 c -0.56,0.86 -1,1.53 -1.27,2 h -9.31 z"
     fill="#4a4a4a"
     id="path3"
     style="fill:#000000;fill-opacity:1" />
  <path
     d="m 150.74048,14.512399 a 5,5 0 0 1 1.56,-3.66 5.35,5.35 0 0 1 7.53,0 4.91,4.91 0 0 1 1.57,3.7 5.31,5.31 0 0 1 -5.31,5.28 5.22,5.22 0 0 1 -3.79,-1.54 5.13,5.13 0 0 1 -1.56,-3.78 z"
     fill="url(#b)"
     id="path4"
     style="fill:url(#b)" />
</svg>
