<?xml version="1.0" encoding="UTF-8" standalone="no"?>
<!-- Created with Inkscape (http://www.inkscape.org/) -->

<svg
   width="322.19986"
   height="126.08297"
   id="svg3509"
   version="1.1"
   inkscape:version="1.4 (1:1.4+202410161351+e7c3feb100)"
   sodipodi:docname="partner7.svg"
   inkscape:export-filename="/home/fabrizio/Desktop/kicad_logo2.png"
   inkscape:export-xdpi="130.52866"
   inkscape:export-ydpi="130.52866"
   xmlns:inkscape="http://www.inkscape.org/namespaces/inkscape"
   xmlns:sodipodi="http://sodipodi.sourceforge.net/DTD/sodipodi-0.dtd"
   xmlns="http://www.w3.org/2000/svg"
   xmlns:svg="http://www.w3.org/2000/svg"
   xmlns:rdf="http://www.w3.org/1999/02/22-rdf-syntax-ns#"
   xmlns:cc="http://creativecommons.org/ns#"
   xmlns:dc="http://purl.org/dc/elements/1.1/">
  <defs
     id="defs3511" />
  <sodipodi:namedview
     id="base"
     pagecolor="#ffffff"
     bordercolor="#666666"
     borderopacity="1.0"
     inkscape:pageopacity="0.0"
     inkscape:pageshadow="2"
     inkscape:zoom="2.8"
     inkscape:cx="150.17857"
     inkscape:cy="60.892857"
     inkscape:document-units="px"
     inkscape:current-layer="layer1"
     showgrid="true"
     inkscape:window-width="2558"
     inkscape:window-height="1135"
     inkscape:window-x="0"
     inkscape:window-y="41"
     inkscape:window-maximized="1"
     inkscape:snap-grids="false"
     showguides="true"
     inkscape:guide-bbox="true"
     inkscape:snap-to-guides="false"
     fit-margin-top="0"
     fit-margin-left="0"
     fit-margin-right="0"
     fit-margin-bottom="0"
     inkscape:showpageshadow="2"
     inkscape:pagecheckerboard="0"
     inkscape:deskcolor="#d1d1d1" />
  <metadata
     id="metadata3514">
    <rdf:RDF>
      <cc:Work
         rdf:about="">
        <dc:format>image/svg+xml</dc:format>
        <dc:type
           rdf:resource="http://purl.org/dc/dcmitype/StillImage" />
        <dc:title />
      </cc:Work>
    </rdf:RDF>
  </metadata>
  <g
     inkscape:label="Layer 1"
     inkscape:groupmode="layer"
     id="layer1"
     transform="translate(-48.327904,-890.05027)">
    <path
       inkscape:connector-curvature="0"
       style="fill:#ffffff;fill-opacity:0;fill-rule:nonzero;stroke:#000000;stroke-width:4.85049;stroke-miterlimit:4;stroke-opacity:1"
       d="M 51.678648,901.97614 H 166.07062 c 0.51273,0 0.9255,0.43179 0.9255,0.96814 v 109.79552 c 0,0.5364 -0.41277,0.9682 -0.9255,0.9682 H 51.678648 c -0.512727,0 -0.925501,-0.4318 -0.925501,-0.9682 V 902.94428 c 0,-0.53635 0.412774,-0.96814 0.925501,-0.96814 z"
       id="rect3438-4-1-6-9-8-4" />
    <path
       inkscape:connector-curvature="0"
       id="path3008"
       style="font-style:normal;font-weight:normal;font-size:120.794px;line-height:122%;font-family:Sans;letter-spacing:0px;word-spacing:0px;fill:#000000;fill-opacity:1;stroke:none"
       d="m 80.269477,948.26032 16.927605,-21.41018 c 3.460178,-4.36453 5.190288,-7.62815 5.190348,-9.79088 -6e-5,-0.78633 -0.0984,-1.41546 -0.29491,-1.8874 h 29.54958 c -2.24136,1.25835 -5.0528,3.91251 -8.43431,7.96246 -0.90445,1.06175 -2.49694,3.00812 -4.77747,5.83914 l -22.176937,27.60321 26.482557,36.45038 c 1.61208,2.20197 3.65676,4.67918 6.13405,7.43165 0.66837,0.7078 1.63173,1.5532 2.89008,2.5362 h -30.31634 c 0.23587,-0.9044 0.35383,-1.7105 0.35389,-2.4183 -6e-5,-2.1626 -1.49425,-5.2886 -4.482575,-9.37797 L 80.269477,967.96004 v 23.5335 c -3.2e-5,5.4656 1.100949,9.29936 3.302948,11.50136 H 55.851259 c 1.533502,-1.5335 2.516521,-3.28331 2.949061,-5.24935 0.235913,-1.10098 0.353875,-3.16532 0.353887,-6.19303 v -64.9383 c -1.2e-5,-3.02763 -0.117974,-5.09197 -0.353887,-6.19303 -0.43254,-1.96596 -1.415559,-3.71573 -2.949061,-5.24933 h 27.721166 c -2.201999,2.20205 -3.30298,6.01617 -3.302948,11.44236 v 21.6461" />
    <path
       id="path3010"
       style="font-style:normal;font-weight:normal;font-size:120.794px;line-height:122%;font-family:Sans;letter-spacing:0px;word-spacing:0px;fill:#000000;fill-opacity:1;stroke:none"
       d="M 145.29079 907.97996 C 143.85658 907.98 142.52561 908.20258 141.28689 908.62254 L 149.18337 908.62254 C 147.97253 908.20238 146.67966 907.98 145.29079 907.97996 z M 143.79079 931.478 C 144.2802 931.53428 144.7781 931.57177 145.29079 931.57175 C 145.81823 931.57177 146.32594 931.53381 146.82595 931.478 L 143.79079 931.478 z M 132.37283 938.82566 C 133.67041 940.28059 134.47621 941.87491 134.79079 943.60496 C 134.94801 944.43076 135.02711 946.25829 135.02712 949.08933 L 135.02712 992.97214 C 135.02711 995.80325 134.94806 997.65006 134.79079 998.51511 C 134.47621 1000.2846 133.65113 1001.8962 132.31423 1003.3511 L 158.2654 1003.3511 C 156.92846 1001.8962 156.10337 1000.2846 155.78884 998.51511 C 155.63151 997.65006 155.55248 995.80325 155.55251 992.97214 L 155.55251 938.82566 L 132.37283 938.82566 z " />
    <path
       inkscape:connector-curvature="0"
       id="path3012"
       style="font-style:normal;font-weight:normal;font-size:120.794px;line-height:122%;font-family:Sans;letter-spacing:-6.6px;word-spacing:0px;fill:#000000;fill-opacity:1;stroke:none"
       d="m 236.09782,999.10211 c -6.25207,3.53889 -13.25117,5.30829 -20.99731,5.30829 -12.30745,0 -22.11798,-4.56119 -29.43162,-13.68362 -6.80251,-8.45395 -10.20376,-18.99191 -10.20375,-31.61392 -1e-5,-14.15543 4.168,-25.40117 12.50402,-33.73725 7.70685,-7.70679 16.82926,-11.56023 27.36727,-11.56032 6.88109,9e-5 13.91951,2.00545 21.11527,6.01609 1.84801,1.02242 3.3422,1.59257 4.48258,1.71045 l -10.55764,15.33511 c -3.46029,-4.40385 -8.08048,-6.60582 -13.86058,-6.60589 -9.04382,7e-5 -14.94194,5.58362 -17.69436,16.75066 -0.90441,3.65689 -1.3566,7.68727 -1.35657,12.09115 -3e-5,12.50404 3.16529,21.03665 9.49597,25.59784 2.94902,2.12334 6.09468,3.185 9.437,3.18499 5.9767,1e-5 11.28501,-2.55584 15.92492,-7.66756 l 9.79088,16.04289 c -0.47192,-0.11796 -2.47728,0.82574 -6.01608,2.83109" />
    <path
       inkscape:connector-curvature="0"
       id="path3014"
       style="font-style:normal;font-weight:normal;font-size:120.794px;line-height:122%;font-family:Sans;letter-spacing:-6.6px;word-spacing:0px;fill:#000000;fill-opacity:1;stroke:none"
       d="M 278.98304,984.88764 V 974.6839 c -1.49423,-0.27522 -3.06706,-0.41284 -4.71849,-0.41287 -3.30298,3e-5 -6.13408,0.58984 -8.4933,1.76943 -2.9884,1.49422 -4.48259,3.7355 -4.48257,6.72386 -2e-5,2.2413 0.84537,4.0304 2.53619,5.36729 1.53349,1.21896 3.4602,1.82843 5.78016,1.82842 4.28593,1e-5 7.41193,-1.69078 9.37801,-5.07239 m 23.17962,18.10726 h -21.99999 v -5.01343 c -4.05008,4.12873 -9.26009,6.23233 -15.63002,6.31103 -4.52192,0.039 -8.63094,-0.9634 -12.32707,-3.0081 -3.89277,-2.16262 -6.72387,-5.22964 -8.4933,-9.20105 -1.25827,-2.83108 -1.8874,-6.03573 -1.8874,-9.61394 0,-8.17869 3.99106,-14.21443 11.97319,-18.10722 4.60051,-2.24125 11.04912,-3.36189 19.34583,-3.36193 1.17959,4e-5 3.22427,0.0787 6.13405,0.23592 -4e-5,-6.72381 -2.92944,-10.08573 -8.7882,-10.08578 -4.99377,5e-5 -10.24309,1.45492 -15.74798,4.3646 l -5.83914,-14.0965 c 1.29757,6e-5 3.83376,-0.47179 7.60857,-1.41555 l 8.02145,-2.00536 c 2.7131,-0.55043 5.66216,-0.82567 8.84718,-0.82574 12.58261,7e-5 20.48608,4.01078 23.71044,12.03217 1.57277,3.93213 2.35919,8.78824 2.35925,14.56835 v 28.84181 c -6e-5,2.83111 0.0786,4.67918 0.23592,5.54423 0.31451,1.76944 1.14024,3.38159 2.47722,4.83649" />
    <path
       inkscape:connector-curvature="0"
       id="path3016"
       style="font-style:normal;font-weight:normal;font-size:120.794px;line-height:122%;font-family:Sans;letter-spacing:-6.6px;word-spacing:0px;fill:#000000;fill-opacity:1;stroke:none"
       d="m 347.28917,984.88764 v -29.43162 c -2.59521,-2.20191 -5.48529,-3.30289 -8.67023,-3.30294 -6.92049,5e-5 -10.38072,6.7239 -10.38069,20.17157 -3e-5,10.85256 3.16529,16.27882 9.49597,16.27881 3.30291,10e-6 6.48789,-1.23859 9.55495,-3.71582 m -2.65415,-75.08307 h 23.17961 v 82.80961 c -6e-5,4.91511 0.90431,8.37532 2.71314,10.38072 H 348.4688 v -5.01343 c -4.28601,4.20733 -9.7516,6.31103 -16.39678,6.31103 -5.6229,0 -10.49867,-1.6908 -14.62733,-5.07242 -3.89278,-3.18498 -6.74353,-7.52993 -8.55228,-13.03485 -1.25827,-3.85342 -1.8874,-8.13938 -1.8874,-12.8579 0,-15.64964 3.99106,-26.34488 11.97319,-32.08578 3.77477,-2.71307 8.11972,-4.06963 13.03484,-4.0697 6.4879,7e-5 11.57994,1.74984 15.27613,5.24933 V 920.0673 c -4e-5,-2.83101 -0.0787,-4.65943 -0.23592,-5.48525 -0.31461,-1.73002 -1.12069,-3.32252 -2.41823,-4.77748" />
    <path
       inkscape:connector-curvature="0"
       style="fill:#ffffff;fill-opacity:0;fill-rule:nonzero;stroke:none"
       d="m 135.29004,906.65179 h 28.31517 v 27.03082 h -28.31517 z"
       id="rect4352-5-1" />
    <path
       inkscape:connector-curvature="0"
       style="fill:#000000;fill-opacity:1;fill-rule:nonzero;stroke:none"
       d="m 161.16831,902.00507 c 0,6.60244 -5.36817,11.95472 -11.99015,11.95472 -6.62197,0 -11.99015,-5.35228 -11.99015,-11.95472 0,-6.60244 5.36818,-11.9548 11.99015,-11.9548 6.62198,0 11.99015,5.35236 11.99015,11.9548 z"
       id="path3552-6-3-7" />
  </g>
</svg>
