<?xml version="1.0" encoding="UTF-8" standalone="no"?>
<svg
   width="140"
   height="35"
   viewBox="0 0 140 35"
   fill="none"
   version="1.1"
   id="svg15"
   sodipodi:docname="komodo-wallet-dark.svg"
   inkscape:version="1.4 (1:1.4+202410161351+e7c3feb100)"
   xmlns:inkscape="http://www.inkscape.org/namespaces/inkscape"
   xmlns:sodipodi="http://sodipodi.sourceforge.net/DTD/sodipodi-0.dtd"
   xmlns="http://www.w3.org/2000/svg"
   xmlns:svg="http://www.w3.org/2000/svg">
  <sodipodi:namedview
     id="namedview15"
     pagecolor="#ffffff"
     bordercolor="#000000"
     borderopacity="0.25"
     inkscape:showpageshadow="2"
     inkscape:pageopacity="0.0"
     inkscape:pagecheckerboard="0"
     inkscape:deskcolor="#d1d1d1"
     inkscape:zoom="8.6214286"
     inkscape:cx="67.332229"
     inkscape:cy="5.0455675"
     inkscape:window-width="2558"
     inkscape:window-height="1135"
     inkscape:window-x="0"
     inkscape:window-y="41"
     inkscape:window-maximized="1"
     inkscape:current-layer="svg15" />
  <g
     clip-path="url(#clip0_167_15337)"
     id="g6"
     style="fill:#000000;fill-opacity:1">
    <path
       d="M82.0518 9.48049C82.4958 9.17791 82.9305 8.86903 83.3839 8.57906C83.5935 8.44668 83.8311 8.35528 84.0563 8.25127C84.2408 8.16617 84.4253 8.08107 84.616 8.01488C84.7724 7.95814 84.9381 7.92663 85.1007 7.89195C85.279 7.85098 85.4603 7.81316 85.6417 7.78164C85.8137 7.75327 85.9857 7.72806 86.1577 7.706C86.3859 7.67763 86.6174 7.62405 86.8456 7.63665C87.2803 7.66187 87.715 7.7186 88.1465 7.77218C88.3842 7.80055 88.6218 7.83522 88.8532 7.89511C89.094 7.95499 89.3285 8.04324 89.5631 8.1315C89.7976 8.2229 90.0321 8.32061 90.2573 8.43408C90.7201 8.67046 91.161 8.93837 91.5269 9.3166C91.6645 9.45843 91.8365 9.5719 91.9678 9.72003C92.2805 10.073 92.587 10.4355 92.7996 10.8642C92.9372 11.1478 93.0998 11.422 93.2218 11.712C93.3125 11.9295 93.3687 12.1659 93.4219 12.3991C93.5095 12.7868 93.5939 13.1776 93.6596 13.5685C93.694 13.7733 93.694 13.9877 93.694 14.1988C93.6971 16.194 93.6908 18.1922 93.6971 20.1874C93.7002 20.6727 93.4063 20.8902 93.0029 20.8997C92.1023 20.9217 91.2017 20.9123 90.3011 20.9028C90.0071 20.8997 89.6631 20.6444 89.6663 20.2504C89.6819 18.312 89.6788 16.3736 89.6663 14.4321C89.6631 14.1295 89.5756 13.8238 89.513 13.5243C89.4098 13.0263 89.1472 12.6134 88.7876 12.2604C88.5562 12.0335 88.2903 11.8633 87.9901 11.7341C87.5774 11.5544 87.149 11.4567 86.7049 11.4851C86.436 11.5008 86.1733 11.5891 85.9044 11.6364C85.5979 11.6899 85.3321 11.8381 85.0913 12.024C84.7567 12.2825 84.4847 12.5914 84.2908 12.9854C84.025 13.5212 83.9468 14.0822 83.9468 14.6653C83.9437 16.4965 83.9343 18.3278 83.9531 20.1558C83.9593 20.7011 83.6435 20.8902 83.2182 20.8997C82.402 20.9186 81.5859 20.9186 80.7728 20.8965C80.532 20.8902 80.2537 20.9091 80.0723 20.6601C79.9817 20.5341 79.9222 20.4143 79.9222 20.2535C79.9254 18.2931 79.9222 16.3295 79.9285 14.369C79.9285 13.9845 79.8503 13.6126 79.7315 13.2564C79.6033 12.8719 79.375 12.5189 79.0811 12.2478C78.8528 12.0335 78.587 11.8475 78.2774 11.7278C77.8709 11.5702 77.4581 11.4788 77.0266 11.4851C76.645 11.4882 76.2792 11.5733 75.9227 11.7278C75.513 11.9043 75.1597 12.1438 74.8876 12.4968C74.6406 12.8152 74.4279 13.1587 74.3623 13.5622C74.3091 13.8931 74.2497 14.2272 74.2466 14.5613C74.2341 16.4303 74.2434 18.3025 74.2403 20.1716C74.2403 20.4048 74.209 20.6475 73.9714 20.7705C73.84 20.8366 73.6868 20.8965 73.543 20.8997C72.6987 20.9123 71.8543 20.9154 71.0132 20.8997C70.7692 20.8934 70.4909 20.8934 70.3346 20.6475C70.2627 20.5372 70.1907 20.3985 70.1907 20.2693C70.1813 18.2174 70.1688 16.1624 70.197 14.1106C70.2032 13.6378 70.2658 13.1524 70.4315 12.6954C70.5066 12.4874 70.5535 12.2699 70.6285 12.0587C70.763 11.6742 70.9412 11.3117 71.1601 10.965C71.3821 10.6089 71.6292 10.2716 71.9138 9.96588C72.3328 9.51201 72.7925 9.10542 73.3303 8.79969C73.6274 8.62949 73.912 8.43723 74.2184 8.29224C74.4905 8.16302 74.7844 8.07476 75.0753 7.98651C75.3942 7.89195 75.7226 7.81946 76.0446 7.73751C76.0665 7.73121 76.0884 7.72491 76.1103 7.72175C76.5731 7.69024 77.0328 7.62405 77.4956 7.63981C77.9334 7.65241 78.3743 7.72175 78.8059 7.81316C79.2218 7.90141 79.6377 8.01488 80.0286 8.18193C80.557 8.40571 81.0761 8.65786 81.5108 9.05814C81.6828 9.22204 81.8892 9.35442 82.0518 9.48049Z"
       fill="white"
       id="path1"
       style="fill:#000000;fill-opacity:1" />
    <path
       d="M120.592 8.38695C120.592 8.27348 120.592 8.20729 120.592 8.1411C120.592 6.07663 120.602 4.01216 120.586 1.9477C120.583 1.55056 120.908 1.30787 121.224 1.30472C122.14 1.29211 123.059 1.28265 123.976 1.31102C124.32 1.32048 124.614 1.47492 124.614 1.9603C124.604 6.18695 124.61 10.4104 124.604 14.6371C124.604 15.009 124.576 15.3904 124.489 15.7497C124.388 16.1752 124.254 16.5912 124.079 17.001C123.829 17.5778 123.516 18.1167 123.122 18.5927C122.778 19.0087 122.359 19.3712 121.946 19.721C121.662 19.9637 121.34 20.1591 121.017 20.3514C120.802 20.4775 120.558 20.5626 120.323 20.6571C120.111 20.7454 119.898 20.8242 119.682 20.903C119.554 20.9471 119.42 20.9912 119.285 21.0133C119.047 21.0543 118.807 21.0952 118.566 21.1142C118.15 21.1457 117.731 21.1961 117.318 21.1772C116.883 21.1583 116.446 21.0921 116.014 21.0101C115.698 20.9503 115.379 20.862 115.079 20.7391C114.607 20.5468 114.147 20.3293 113.716 20.0457C113.272 19.7526 112.884 19.409 112.524 19.0245C112.171 18.6494 111.864 18.2365 111.652 17.7637C111.467 17.3603 111.292 16.9506 111.136 16.5377C111.067 16.358 111.048 16.1563 111.017 15.9609C110.967 15.6772 110.898 15.3935 110.883 15.1099C110.861 14.6781 110.876 14.2463 110.879 13.8144C110.879 13.742 110.904 13.6695 110.92 13.597C110.979 13.2944 111.033 12.9918 111.105 12.6924C111.158 12.4592 111.211 12.2228 111.305 12.0053C111.502 11.5577 111.724 11.1228 111.993 10.7099C112.315 10.2182 112.703 9.79583 113.125 9.40184C113.494 9.05829 113.9 8.75887 114.354 8.53193C114.566 8.42477 114.766 8.28924 114.985 8.19468C115.185 8.10643 115.398 8.04339 115.608 7.98666C115.93 7.89526 116.252 7.81961 116.577 7.73451C116.593 7.73136 116.608 7.72506 116.627 7.7219C117.037 7.69039 117.443 7.62735 117.853 7.64311C118.275 7.65887 118.7 7.72506 119.113 7.81646C119.482 7.89841 119.839 8.04339 120.195 8.17262C120.317 8.2199 120.436 8.30185 120.592 8.38695ZM120.623 14.407C120.583 14.1927 120.523 13.9783 120.508 13.764C120.483 13.4362 120.358 13.14 120.201 12.872C119.973 12.4781 119.667 12.1503 119.26 11.9044C118.854 11.6586 118.413 11.5577 117.959 11.4915C117.524 11.4285 117.093 11.5325 116.686 11.6743C116.317 11.8036 115.989 12.021 115.711 12.3047C115.295 12.7239 115.038 13.2345 114.948 13.8113C114.873 14.2841 114.845 14.7726 115.013 15.2422C115.11 15.5101 115.185 15.7938 115.332 16.0334C115.57 16.4273 115.898 16.7425 116.305 16.9695C116.69 17.1838 117.099 17.3099 117.537 17.3382C117.919 17.3634 118.294 17.3382 118.653 17.1775C118.891 17.0703 119.166 17.0167 119.369 16.8654C119.764 16.5723 120.104 16.2099 120.304 15.7497C120.486 15.3273 120.605 14.8829 120.623 14.407Z"
       fill="white"
       id="path2"
       style="fill:#000000;fill-opacity:1" />
    <path
       d="M40.9969 11.2423C40.9969 8.1346 40.9969 5.02687 40.9969 1.91598C40.9969 1.73317 40.9875 1.53461 41.1845 1.43375C41.3033 1.37386 41.4378 1.30767 41.5691 1.30452C42.4916 1.29507 43.4141 1.28876 44.3366 1.30452C44.5586 1.30767 44.8151 1.30137 44.9558 1.54721C44.9808 1.59449 45.0121 1.64177 45.0214 1.6922C45.034 1.7773 45.034 1.8624 45.034 1.9475C45.034 5.04893 45.034 8.15351 45.034 11.2549C45.034 11.6962 45.2998 11.838 45.6469 11.7372C45.7782 11.6994 45.8877 11.5638 45.994 11.4598C46.3942 11.0658 46.7914 10.6655 47.1885 10.2653C47.742 9.70423 48.2924 9.14004 48.8428 8.57901C49.1023 8.31741 49.3525 8.0432 49.6245 7.79735C49.7277 7.70595 49.8903 7.63661 50.0279 7.63661C51.3976 7.624 52.7673 7.62715 54.1369 7.6303C54.3527 7.6303 54.5309 7.72486 54.6623 7.89821C54.7217 7.97701 54.6873 8.30165 54.6122 8.37729C54.1619 8.83431 53.7116 9.28818 53.2613 9.7452C52.8486 10.1644 52.442 10.5867 52.0261 11.0028C51.5008 11.5323 50.9692 12.0555 50.4438 12.585C50.2281 12.8025 50.0154 13.0231 49.8122 13.2532C49.7027 13.3793 49.7246 13.6409 49.8278 13.7827C50.103 14.1515 50.375 14.5234 50.644 14.8953C51.0567 15.469 51.4633 16.0489 51.876 16.6226C52.3201 17.2435 52.7673 17.8612 53.2176 18.479C53.4208 18.7564 53.6366 19.0243 53.8367 19.3016C54.1088 19.6767 54.3777 20.0581 54.6435 20.4395C54.7842 20.638 54.6779 21.0131 54.4465 21.1108C54.3433 21.1549 54.2245 21.1864 54.1119 21.1864C52.9518 21.1928 51.7916 21.1833 50.6315 21.1928C50.3657 21.1959 50.1812 21.0698 50.0342 20.8807C49.759 20.5277 49.4994 20.1621 49.2368 19.7965C48.9491 19.3962 48.6739 18.9896 48.3862 18.5893C48.0985 18.1922 47.7983 17.8014 47.5106 17.4042C47.3668 17.2088 47.2292 17.0102 47.101 16.8054C46.9071 16.4965 46.4912 16.5438 46.2973 16.7518C45.969 17.1206 45.625 17.4673 45.2779 17.8077C45.1184 17.9621 45.0277 18.1323 45.0308 18.3624C45.0402 19.1157 45.034 19.869 45.034 20.6223C45.034 20.9973 44.8307 21.1959 44.4586 21.1959C43.486 21.1959 42.5104 21.1959 41.5379 21.1959C41.222 21.1959 41.0063 20.991 41 20.6695C40.9937 20.1936 40.9969 19.7145 40.9969 19.2354C40.9969 16.5721 40.9969 13.9057 40.9969 11.2423Z"
       fill="white"
       id="path3"
       style="fill:#000000;fill-opacity:1" />
    <path
       d="M109.186 14.3692C109.186 14.6308 109.208 14.8956 109.18 15.154C109.155 15.403 109.086 15.6489 109.027 15.8947C108.974 16.1154 108.914 16.3391 108.839 16.5535C108.752 16.8056 108.658 17.0578 108.539 17.2973C108.392 17.5873 108.239 17.8804 108.045 18.1357C107.745 18.5297 107.426 18.9174 107.072 19.2641C106.766 19.5666 106.425 19.844 106.062 20.0709C105.69 20.3042 105.281 20.4807 104.874 20.6572C104.608 20.7738 104.327 20.8621 104.045 20.9283C103.705 21.0102 103.357 21.0795 103.01 21.1142C102.61 21.1583 102.204 21.1836 101.8 21.1709C101.497 21.1615 101.193 21.0827 100.89 21.0323C100.684 20.9976 100.471 20.9692 100.271 20.9125C100.04 20.8463 99.8144 20.7549 99.5861 20.6698C99.4173 20.6068 99.2422 20.55 99.0795 20.4649C98.8231 20.3294 98.5792 20.1718 98.3259 20.03C97.8913 19.7904 97.5441 19.45 97.2002 19.097C96.8187 18.7062 96.4997 18.2712 96.2558 17.7795C96.1151 17.4959 95.99 17.2028 95.8837 16.9033C95.7773 16.6039 95.6835 16.295 95.6179 15.983C95.5428 15.63 95.4959 15.2707 95.4584 14.9114C95.4177 14.5205 95.3865 14.1297 95.5053 13.7452C95.5178 13.7073 95.5147 13.6664 95.5178 13.6254C95.5272 13.2093 95.6366 12.8154 95.7805 12.4308C95.8837 12.1503 95.9525 11.8572 96.0869 11.5956C96.2652 11.252 96.4684 10.9179 96.6998 10.6091C96.9907 10.2245 97.2909 9.83686 97.6442 9.51221C98.0382 9.1529 98.4823 8.84087 98.9326 8.5509C99.2078 8.37439 99.5267 8.26723 99.8332 8.14746C100.162 8.02139 100.496 7.90477 100.834 7.80706C101.031 7.75032 101.24 7.72511 101.447 7.7062C101.819 7.67153 102.194 7.6211 102.569 7.63055C102.929 7.64001 103.289 7.7125 103.648 7.76608C103.877 7.7976 104.105 7.82912 104.324 7.88901C104.561 7.95204 104.793 8.03714 105.021 8.1254C105.262 8.2168 105.499 8.31451 105.731 8.42482C106.194 8.6423 106.613 8.93542 107.007 9.26637C107.46 9.64459 107.835 10.0953 108.158 10.5838C108.358 10.8864 108.505 11.23 108.652 11.5641C108.783 11.8603 108.889 12.1724 108.992 12.4781C109.042 12.6263 109.077 12.7807 109.093 12.9351C109.146 13.4079 109.186 13.8807 109.233 14.3566C109.221 14.3661 109.205 14.3661 109.186 14.3692ZM99.5361 14.3976C99.5173 14.4007 99.4955 14.4007 99.4767 14.4039C99.5267 14.697 99.5486 14.9964 99.6299 15.2801C99.705 15.548 99.8082 15.8128 99.952 16.0492C100.177 16.4211 100.487 16.7174 100.868 16.9411C101.243 17.1649 101.647 17.291 102.075 17.3351C102.485 17.3761 102.891 17.3477 103.276 17.1744C103.511 17.0704 103.776 17.0105 103.973 16.856C104.28 16.6197 104.552 16.3454 104.761 15.9987C104.99 15.6174 105.115 15.2108 105.168 14.7853C105.243 14.2085 105.159 13.6412 104.915 13.1053C104.777 12.8028 104.605 12.5222 104.364 12.2953C104.183 12.1251 103.977 11.9738 103.761 11.8446C103.608 11.7532 103.426 11.6996 103.251 11.6492C103.07 11.5956 102.885 11.5483 102.698 11.5294C102.469 11.5042 102.235 11.4727 102.013 11.5073C101.719 11.5546 101.437 11.6586 101.153 11.75C100.84 11.8477 100.593 12.0526 100.352 12.2701C100.08 12.5159 99.8988 12.8311 99.7425 13.1526C99.6456 13.3512 99.583 13.5718 99.5455 13.7893C99.5111 13.9816 99.5361 14.1927 99.5361 14.3976Z"
       fill="white"
       id="path4"
       style="fill:#000000;fill-opacity:1" />
    <path
       d="M139.993 14.3629C139.993 14.6151 140.012 14.8672 139.987 15.1162C139.962 15.3715 139.893 15.6237 139.84 15.8758C139.806 16.046 139.771 16.2162 139.724 16.3801C139.668 16.5692 139.602 16.7583 139.524 16.9411C139.459 17.0956 139.371 17.2406 139.29 17.3887C139.158 17.6251 139.036 17.8678 138.889 18.0916C138.52 18.6589 138.064 19.1506 137.539 19.5698C137.207 19.8345 136.841 20.0615 136.482 20.2884C136.081 20.5406 135.643 20.7108 135.19 20.8526C134.755 20.9881 134.321 21.1016 133.867 21.1205C133.473 21.1394 133.082 21.1898 132.688 21.1772C132.357 21.1678 132.025 21.089 131.694 21.0385C131.484 21.007 131.275 20.9787 131.075 20.9219C130.847 20.8589 130.625 20.7706 130.402 20.6855C130.24 20.6225 130.071 20.5658 129.918 20.4838C129.652 20.342 129.396 20.1781 129.13 20.0331C128.661 19.781 128.298 19.4027 127.935 19.0245C127.532 18.6022 127.203 18.1231 126.966 17.5904C126.809 17.2406 126.647 16.8907 126.541 16.5251C126.437 16.1784 126.384 15.8096 126.34 15.4503C126.29 15.028 126.243 14.6025 126.256 14.177C126.265 13.8145 126.347 13.452 126.412 13.0927C126.465 12.8122 126.534 12.5348 126.622 12.2638C126.684 12.0715 126.784 11.8919 126.875 11.709C126.991 11.4727 127.094 11.2268 127.238 11.0093C127.454 10.6878 127.701 10.3853 127.932 10.0732C128.304 9.56893 128.795 9.19071 129.302 8.84085C129.643 8.60447 130.033 8.44372 130.402 8.2483C130.746 8.06865 131.119 7.97094 131.494 7.87008C131.853 7.77553 132.213 7.71249 132.585 7.69988C132.857 7.69043 133.132 7.62424 133.401 7.63684C133.758 7.6526 134.111 7.72194 134.465 7.77237C134.696 7.80705 134.931 7.83541 135.156 7.8953C135.393 7.95833 135.625 8.04974 135.853 8.13799C136.072 8.22309 136.294 8.30819 136.5 8.41851C136.81 8.58555 137.113 8.76521 137.407 8.95747C137.945 9.31048 138.389 9.7675 138.761 10.2907C139.049 10.6941 139.318 11.1165 139.48 11.5924C139.568 11.8477 139.659 12.103 139.743 12.3615C139.953 13.0108 140.025 13.6821 139.993 14.3629ZM136.038 14.4133C135.966 14.0824 135.887 13.7578 135.825 13.43C135.765 13.1211 135.612 12.8532 135.434 12.6105C135.231 12.3268 134.99 12.0715 134.665 11.9202C134.458 11.8257 134.255 11.709 134.036 11.6523C133.742 11.5735 133.439 11.4979 133.139 11.4979C132.838 11.4979 132.529 11.5735 132.235 11.6555C131.991 11.7248 131.747 11.8288 131.531 11.9643C131.244 12.1472 130.981 12.3772 130.809 12.683C130.671 12.9288 130.534 13.181 130.443 13.4457C130.362 13.6821 130.324 13.9406 130.312 14.1896C130.299 14.4953 130.306 14.8073 130.356 15.1067C130.393 15.3305 130.503 15.5449 130.606 15.7497C130.706 15.9546 130.828 16.1469 130.959 16.336C131.144 16.6007 131.403 16.7741 131.672 16.9443C132.038 17.1744 132.438 17.291 132.857 17.3351C133.273 17.3761 133.686 17.3477 134.077 17.1744C134.311 17.0704 134.574 17.0105 134.774 16.8623C135.231 16.5251 135.603 16.0933 135.79 15.548C135.919 15.1855 135.959 14.801 136.038 14.4133Z"
       fill="white"
       id="path5"
       style="fill:#000000;fill-opacity:1" />
    <path
       d="M54.6891 14.4448C54.6891 14.2556 54.6704 14.0665 54.6923 13.8806C54.7267 13.5969 54.7892 13.3164 54.8424 13.0327C54.8768 12.8562 54.9111 12.6797 54.9612 12.5064C55.0143 12.3267 55.0769 12.147 55.1519 11.9737C55.2645 11.7152 55.374 11.4536 55.5178 11.2141C55.7086 10.9021 55.9149 10.5963 56.1464 10.3127C56.409 9.98803 56.678 9.66338 56.9907 9.38917C57.3096 9.1055 57.6661 8.85651 58.0382 8.64533C58.4729 8.39949 58.9326 8.18831 59.3985 8.00235C59.6831 7.88889 59.9989 7.84161 60.3054 7.78488C60.5462 7.74075 60.7963 7.72499 61.0403 7.69662C61.2466 7.67456 61.453 7.61783 61.6563 7.63359C62.0816 7.66195 62.5037 7.72184 62.9259 7.77857C63.1479 7.80694 63.3699 7.84161 63.5857 7.89519C63.8077 7.94877 64.0266 8.01811 64.2361 8.10006C64.4894 8.19777 64.7365 8.31439 64.9804 8.43416C65.1493 8.51611 65.3181 8.60436 65.4713 8.71467C65.7528 8.91324 66.028 9.12126 66.2938 9.34189C66.669 9.65393 66.9942 10.0164 67.2725 10.423C67.529 10.7981 67.7604 11.1857 67.9105 11.6175C68.0262 11.9453 68.1513 12.27 68.2576 12.6041C68.3076 12.7648 68.3233 12.935 68.3545 13.1021C68.4671 13.723 68.4765 14.347 68.439 14.9711C68.4233 15.2453 68.3451 15.5132 68.292 15.7843C68.2607 15.9387 68.2294 16.0932 68.1794 16.2382C68.1044 16.4651 68.0168 16.692 67.9261 16.9127C67.8448 17.1112 67.7604 17.3129 67.6541 17.5021C67.4727 17.8172 67.3007 18.1482 67.0724 18.4256C66.7628 18.8038 66.4282 19.1725 66.0561 19.4909C65.6746 19.8155 65.2556 20.1086 64.8178 20.3545C64.4457 20.5625 64.0298 20.6917 63.6264 20.843C63.1854 21.0101 62.7289 21.1015 62.2567 21.1235C61.8658 21.1425 61.4718 21.1897 61.0809 21.1771C60.7651 21.1677 60.4492 21.092 60.1334 21.0384C59.9239 21.0038 59.7144 20.9754 59.5111 20.9187C59.2734 20.8525 59.0389 20.7674 58.8075 20.676C58.5824 20.5877 58.3572 20.4963 58.1446 20.3829C57.8756 20.241 57.6098 20.0866 57.3565 19.9132C57.0032 19.6705 56.6592 19.4058 56.3903 19.0685C56.0807 18.684 55.768 18.2932 55.5209 17.8677C55.3114 17.5052 55.1988 17.0892 55.0394 16.6952C54.8736 16.2917 54.7986 15.8725 54.7579 15.4407C54.7423 15.2737 54.7016 15.1066 54.6891 14.9396C54.6797 14.7757 54.6891 14.6118 54.6891 14.4448ZM61.5719 17.3917C61.8877 17.3161 62.1879 17.2278 62.4975 17.1743C62.7727 17.127 62.9978 16.982 63.2167 16.8307C63.7077 16.4935 64.0516 16.027 64.2424 15.4691C64.3518 15.1508 64.4144 14.8041 64.4206 14.4668C64.43 13.9499 64.3174 13.4456 64.0829 12.976C63.889 12.5883 63.617 12.27 63.2667 12.0178C63.026 11.8445 62.7727 11.6963 62.4725 11.6428C62.2285 11.5986 61.9878 11.5072 61.7438 11.4915C61.2779 11.4631 60.8276 11.5482 60.3929 11.7373C60.0458 11.8886 59.7488 12.0903 59.4923 12.3677C59.2547 12.6261 59.0889 12.9193 58.9482 13.2439C58.795 13.5969 58.7325 13.9688 58.7106 14.3376C58.6856 14.7568 58.7919 15.1665 58.9482 15.5637C59.0608 15.8505 59.2078 16.1089 59.4048 16.3422C59.7425 16.7425 60.1428 17.0482 60.6619 17.1743C60.9558 17.2499 61.2591 17.3193 61.5719 17.3917Z"
       fill="white"
       id="path6"
       style="fill:#000000;fill-opacity:1" />
  </g>
  <g
     clip-path="url(#clip1_167_15337)"
     id="g8"
     style="fill:#000000;fill-opacity:1">
    <path
       d="M2.49616e-05 17.484C-0.00780218 22.1253 1.82541 26.5796 5.09637 29.867C8.36733 33.1544 12.8081 35.0057 17.4418 35.0135C22.0754 35.0214 26.5224 33.1851 29.8045 29.9088C33.0865 26.6325 34.9347 22.1844 34.9425 17.5431V17.4107C34.942 16.0646 34.7835 14.7232 34.4703 13.4141C34.3427 12.944 34.0378 12.5419 33.6199 12.2925C33.2021 12.0432 32.7039 11.966 32.2304 12.0773C31.7569 12.1886 31.345 12.4796 31.0815 12.8891C30.818 13.2986 30.7235 13.7946 30.8179 14.2725C31.5243 17.1886 31.2603 20.256 30.0661 23.0079C28.8718 25.7598 26.8127 28.0456 24.2021 29.5174C21.5914 30.9893 18.5722 31.5665 15.6039 31.1613C12.6356 30.7562 9.88066 29.3908 7.7584 27.2729C5.63614 25.1551 4.26273 22.4007 3.84717 19.4291C3.43162 16.4574 3.99667 13.4311 5.45634 10.8107C6.91601 8.19032 9.19038 6.11932 11.9333 4.91286C14.6763 3.7064 17.7376 3.43055 20.6515 4.12728C21.1346 4.24018 21.6426 4.15673 22.0643 3.89521C22.486 3.6337 22.7871 3.21543 22.9015 2.73202C22.9597 2.49375 22.97 2.24629 22.9319 2.00399C22.8938 1.7617 22.808 1.52941 22.6794 1.32061C22.5509 1.11182 22.3823 0.930671 22.1833 0.787698C21.9844 0.644724 21.759 0.542773 21.5204 0.487764C19.2909 -0.04889 16.9777 -0.140181 14.713 0.219111C12.4484 0.578402 10.2766 1.38123 8.32181 2.58171C6.36706 3.78218 4.66767 5.35677 3.32079 7.21545C1.97391 9.07414 1.00594 11.1805 0.472221 13.4141C0.159855 14.7482 0.00141913 16.1137 2.49616e-05 17.484Z"
       fill="white"
       id="path7"
       style="fill:#000000;fill-opacity:1" />
    <path
       d="M26.343 4.60424C26.3123 4.63499 26.2981 4.66573 26.2816 4.67992C25.8514 5.13726 25.587 5.72605 25.5308 6.35187V6.65221C25.5308 6.72789 25.5166 6.78701 25.5166 6.86268C25.4526 7.52376 25.2588 8.16566 24.9464 8.75153C24.634 9.33739 24.2092 9.8557 23.6963 10.2767C23.1834 10.6977 22.5926 11.0131 21.9577 11.2048C21.3228 11.3965 20.6564 11.4607 19.9967 11.3938C19.7742 11.3743 19.5533 11.3395 19.3356 11.2897C19.2074 11.263 19.0811 11.2275 18.9578 11.1833C18.4225 11.048 17.8711 10.9875 17.3193 11.0036C15.71 11.0351 14.1679 11.6559 12.9846 12.7488C12.9255 12.8079 12.85 12.8552 12.7886 12.9285C12.1409 13.5279 11.6208 14.252 11.2593 15.0576C10.8978 15.8631 10.7024 16.7335 10.6849 17.6165C10.6673 18.4995 10.828 19.377 11.1572 20.1963C11.4864 21.0156 11.9774 21.7599 12.6007 22.3846C13.224 23.0092 13.9668 23.5014 14.7846 23.8315C15.6024 24.1617 16.4784 24.323 17.36 24.3059C18.2415 24.2888 19.1106 24.0935 19.915 23.7319C20.7194 23.3702 21.4426 22.8496 22.0413 22.2012C22.3119 21.9274 22.5584 21.6307 22.7779 21.3143C23.3059 20.5536 23.6674 19.6897 23.8387 18.7792C24.01 17.8687 23.9872 16.9323 23.7719 16.0312C23.7346 15.9124 23.7038 15.7916 23.6798 15.6694C23.6798 15.6529 23.6656 15.6387 23.6656 15.6079C23.5153 14.9604 23.4942 14.2894 23.6035 13.6336C23.7127 12.9779 23.9502 12.3501 24.3023 11.7865C24.6544 11.2229 25.1142 10.7345 25.6552 10.3494C26.1962 9.96419 26.8078 9.68985 27.455 9.54207C27.6873 9.485 27.9244 9.45016 28.1633 9.43802L28.2672 9.42146C28.3722 9.40964 28.4779 9.4049 28.5835 9.40727H28.6142C29.2669 9.34459 29.8777 9.05708 30.3425 8.59376C30.4487 8.47315 30.555 8.35728 30.6447 8.23194C30.8598 7.93021 31.013 7.58872 31.0954 7.22726C31.1778 6.8658 31.1878 6.49155 31.1248 6.12619C31.0618 5.76084 30.927 5.41164 30.7283 5.09884C30.5295 4.78603 30.2708 4.51584 29.9671 4.30391C29.4238 3.92012 28.7631 3.73992 28.1006 3.79482C27.438 3.84973 26.8159 4.13625 26.343 4.60424Z"
       fill="white"
       id="path8"
       style="fill:#000000;fill-opacity:1" />
  </g>
  <path
     d="M44.7332 34.8737L42.2207 25.7842H43.3513L45.2716 33.1872H45.3613L47.3174 25.7842H48.5737L50.5298 33.1872H50.6196L52.5398 25.7842H53.6704L51.1579 34.8737H50.0094L47.9815 27.6305H47.9097L45.8817 34.8737H44.7332Z"
     fill="white"
     id="path9"
     style="fill:#000000;fill-opacity:1" />
  <path
     d="M54.8444 34.8737H53.6779L57.0518 25.7842H58.2003L61.5742 34.8737H60.4077L57.6619 27.2222H57.5902L54.8444 34.8737ZM55.2751 31.3231H59.977V32.2996H55.2751V31.3231Z"
     fill="white"
     id="path10"
     style="fill:#000000;fill-opacity:1" />
  <path
     d="M63.1318 34.8737V25.7842H64.2445V33.8973H68.5157V34.8737H63.1318Z"
     fill="white"
     id="path11"
     style="fill:#000000;fill-opacity:1" />
  <path
     d="M70.3649 34.8737V25.7842H71.4775V33.8973H75.7487V34.8737H70.3649Z"
     fill="white"
     id="path12"
     style="fill:#000000;fill-opacity:1" />
  <path
     d="M77.5979 34.8737V25.7842H83.1433V26.7606H78.7106V29.8319H82.8562V30.8083H78.7106V33.8973H83.2151V34.8737H77.5979Z"
     fill="white"
     id="path13"
     style="fill:#000000;fill-opacity:1" />
  <path
     d="M84.7727 26.7606V25.7842H91.664V26.7606H88.7747V34.8737H87.662V26.7606H84.7727Z"
     fill="white"
     id="path14"
     style="fill:#000000;fill-opacity:1" />
  <defs
     id="defs15">
    <clipPath
       id="clip0_167_15337">
      <rect
         width="99.0038"
         height="19.9103"
         fill="white"
         transform="translate(40.9961 1.29199)"
         id="rect14" />
    </clipPath>
    <clipPath
       id="clip1_167_15337">
      <rect
         width="34.9425"
         height="34.9999"
         fill="white"
         id="rect15" />
    </clipPath>
  </defs>
</svg>
