<?xml version="1.0" encoding="UTF-8" standalone="no"?>
<svg
   clip-rule="evenodd"
   fill-rule="evenodd"
   stroke-linejoin="round"
   stroke-miterlimit="2"
   viewBox="0 0 288.70706 54.086479"
   version="1.1"
   id="svg14"
   sodipodi:docname="partner2.svg"
   width="288.70706"
   height="54.086479"
   inkscape:version="1.4 (1:1.4+202410161351+e7c3feb100)"
   xmlns:inkscape="http://www.inkscape.org/namespaces/inkscape"
   xmlns:sodipodi="http://sodipodi.sourceforge.net/DTD/sodipodi-0.dtd"
   xmlns="http://www.w3.org/2000/svg"
   xmlns:svg="http://www.w3.org/2000/svg">
  <defs
     id="defs14" />
  <sodipodi:namedview
     id="namedview14"
     pagecolor="#ffffff"
     bordercolor="#000000"
     borderopacity="0.25"
     inkscape:showpageshadow="2"
     inkscape:pageopacity="0.0"
     inkscape:pagecheckerboard="0"
     inkscape:deskcolor="#d1d1d1"
     inkscape:zoom="2.3325"
     inkscape:cx="239.44266"
     inkscape:cy="25.937835"
     inkscape:window-width="2558"
     inkscape:window-height="1135"
     inkscape:window-x="0"
     inkscape:window-y="41"
     inkscape:window-maximized="1"
     inkscape:current-layer="svg14" />
  <clipPath
     id="a">
    <path
       clip-rule="nonzero"
       d="m 22.312,15.345 -0.441,-0.773 c -0.415,-0.718 -1.326,-2.264 -1.326,-2.264 l -3.921,-6.904 -5.633,9.61 c -1.409,2.375 0.331,5.357 3.148,5.357 H 29.216 C 25.295,20.343 24.08,18.355 22.312,15.345 Z"
       id="path1" />
  </clipPath>
  <g
     id="g1"
     transform="translate(-10.718114,-4.7159701)">
    <path
       d="M 97.55952,42.962966 78.472959,9.8886229 C 74.288802,2.9943723 64.086265,2.9200121 60.048314,10.180752 L 40.007425,44.574989 c -3.74288,6.307336 0.882554,14.226694 8.368315,14.226694 h 40.153551 c 7.560192,0 13.214389,-8.139783 9.030229,-15.838717 z"
       fill="#00b897"
       fill-rule="nonzero"
       id="path2"
       style="fill:#000000;fill-opacity:1;stroke-width:2.65701" />
    <path
       d="M 70.030213,45.528392 68.857905,43.47552 c -1.103193,-1.906807 -3.5249,-6.012551 -3.5249,-6.012551 L 49.183861,9.4477732 C 44.999704,3.2147972 35.089579,2.7022431 30.905422,10.547242 l -18.79149,32.487429 c -3.8917448,6.819891 0.733689,15.695308 9.176436,15.767012 H 88.383084 C 78.031682,58.876044 74.73008,53.522112 70.030213,45.528392 Z"
       fill="#76fcb2"
       fill-rule="nonzero"
       id="path3"
       style="fill:#000000;fill-opacity:1;stroke-width:2.65701" />
    <path
       d="m 170.77857,57.610992 v -43.0331 h 35.79938 v 2.727892 c 0,2.147617 -1.73653,3.87947 -3.88323,3.87947 H 179.7097 v 11.563631 h 22.98502 v 6.610353 H 179.7097 V 50.92287 h 22.98502 c 2.1467,0 3.88323,1.731852 3.88323,3.879469 v 2.727893 z"
       id="path8"
       style="fill-rule:nonzero;stroke-width:2.99256" />
    <path
       d="m 258.00306,14.577892 h -8.43113 c -1.57185,0 -2.97604,0.661035 -3.97006,1.899355 L 235.43422,29.282189 225.26356,16.560998 c -0.99101,-1.238319 -2.3982,-1.899355 -3.96706,-1.899355 h -8.43413 l 17.11377,21.47617 -17.11377,21.473179 h 8.43413 c 1.56886,0 2.97605,-0.661036 3.96706,-1.899355 l 10.17066,-12.7182 10.25149,12.801951 c 0.99101,1.154568 2.3982,1.899355 3.96706,1.899355 h 8.43413 l -17.11377,-21.47617 z"
       id="path9"
       style="fill-rule:nonzero;stroke-width:2.99256" />
    <path
       d="m 142.75164,53.073478 11.73952,-20.486113 v 24.945858 h 8.93113 v -43.0331 h -5.53892 c -1.73653,0 -3.39221,0.906307 -4.21856,2.476639 L 139.61093,42.583655 125.55704,16.976762 c -0.82934,-1.570332 -2.48203,-2.476639 -4.21856,-2.476639 h -5.53892 v 43.0331 h 8.92814 V 32.587365 l 11.74251,20.486113 z"
       id="path10"
       style="fill-rule:nonzero;stroke-width:2.99256" />
    <path
       d="m 281.32041,58.107516 c -12.40418,0.164511 -22.48801,-9.580525 -22.57184,-21.969703 0,-6.774864 2.06587,-12.389178 5.95209,-16.271638 3.88623,-3.79871 9.50898,-5.865567 16.20658,-5.865567 7.85329,0 14.05388,2.724901 18.51795,8.013184 l -2.81137,2.395879 c -1.73653,1.486581 -4.2994,1.567341 -6.2006,0.164511 -2.47904,-1.899355 -5.62275,-2.808653 -9.17664,-2.808653 -8.76347,0 -13.97304,5.285292 -13.97304,14.207773 0,9.003241 5.37424,14.536795 13.97304,14.536795 3.63772,0 6.6976,-0.993049 9.17664,-2.808653 1.82036,-1.405821 4.38323,-1.32207 6.2006,0.164511 l 2.81137,2.395879 c -4.46407,5.201541 -10.41616,7.845682 -18.10478,7.845682 z"
       id="path11"
       style="fill-rule:nonzero;stroke-width:2.99256" />
  </g>
</svg>
